<svg xmlns="http://www.w3.org/2000/svg" viewBox="0 0 220.43 64.06"><defs><style>.a{fill:#0068ff;}.b{fill:#03ca77;}</style></defs><title>ZaloPay logo - Brandlogos.net</title><path class="a" d="M469.42,503.65a4.57,4.57,0,0,0-3.41-1.37,4.64,4.64,0,0,0-4.44,2.92,10.15,10.15,0,0,0-8.16-3.51A13.39,13.39,0,0,0,443,506.48a18.26,18.26,0,0,0,0,23.38,13.39,13.39,0,0,0,10.44,4.79,10.15,10.15,0,0,0,8.16-3.51c.93,1.95,2.41,3.24,4.44,3.24a4.56,4.56,0,0,0,3.41-1.37,4.63,4.63,0,0,0,1.34-3.36V507A4.64,4.64,0,0,0,469.42,503.65Zm-9.89,20.06a6.23,6.23,0,0,1-9.56,0,9.7,9.7,0,0,1,0-11.07,6.23,6.23,0,0,1,9.56,0,9.69,9.69,0,0,1,0,11.07Z" transform="translate(-401.79 -479.97)"/><path class="a" d="M481.51,533.36a4.92,4.92,0,0,1-6.82,0,4.62,4.62,0,0,1-1.34-3.36V488.9a4.63,4.63,0,0,1,1.34-3.36,4.92,4.92,0,0,1,6.82,0,4.63,4.63,0,0,1,1.34,3.36V530a4.62,4.62,0,0,1-1.34,3.36Z" transform="translate(-401.79 -479.97)"/><path class="a" d="M513,506.48a15.37,15.37,0,0,0-11.63-4.79,15.16,15.16,0,0,0-11.54,4.73,17.65,17.65,0,0,0,0,23.49,15.16,15.16,0,0,0,11.54,4.73A15.36,15.36,0,0,0,513,529.86a17.77,17.77,0,0,0,0-23.38Zm-6.85,17.22a6.23,6.23,0,0,1-9.56,0,9.69,9.69,0,0,1,0-11.07,6.22,6.22,0,0,1,9.56,0,9.7,9.7,0,0,1,0,11.07Z" transform="translate(-401.79 -479.97)"/><path class="a" d="M432.81,503.11q5-6.49,5-8.75,0-5.21-6.56-5.21H407.6a6.26,6.26,0,0,0-4.21,1.28,4.49,4.49,0,0,0,0,6.68,6.25,6.25,0,0,0,4.21,1.28h16.47L403.79,524.6a8.45,8.45,0,0,0-2,4.56c-.24,3.75,1.43,5.89,7.55,5.71h23.78q5.7,0,5.7-4.78t-5.7-4.78H415.65l17.16-22.19Z" transform="translate(-401.79 -479.97)"/><path class="b" d="M540.2,498.54h-6.25v13h6.25a6,6,0,0,0,4.57-1.84,7.08,7.08,0,0,0,0-9.32A6,6,0,0,0,540.2,498.54Z" transform="translate(-401.79 -479.97)"/><path class="b" d="M571.2,510.44a5.71,5.71,0,0,0-4.78,2.24,9.7,9.7,0,0,0,0,11.07,6.23,6.23,0,0,0,9.56,0,9.69,9.69,0,0,0,0-11.07A5.72,5.72,0,0,0,571.2,510.44Z" transform="translate(-401.79 -479.97)"/><path class="b" d="M616.74,480H525.58a5.48,5.48,0,0,0-5.48,5.48v53.11a5.48,5.48,0,0,0,5.48,5.48h70.89a3.36,3.36,0,0,1-1.13-2.51,6.51,6.51,0,0,1,.53-2.47l3.37-7.51-9.33-23.3a5.65,5.65,0,0,1-.41-2.17,3.22,3.22,0,0,1,1.29-2.58,4.3,4.3,0,0,1,6.93,1.94l5.81,15.9,6.22-15.9a4.52,4.52,0,0,1,4.46-3,4.22,4.22,0,0,1,2.7,1.06,3.22,3.22,0,0,1,1.29,2.58,5.65,5.65,0,0,1-.41,2.17l-14.06,33.56a6.77,6.77,0,0,1-1.36,2.22h14.38a5.48,5.48,0,0,0,5.48-5.48V485.45A5.48,5.48,0,0,0,616.74,480Zm-65.2,34.46a15.38,15.38,0,0,1-10.79,3.92h-6.8v11.51a4.7,4.7,0,0,1-1.29,3.52,5,5,0,0,1-6.62,0,4.7,4.7,0,0,1-1.29-3.52V494q0-4.78,4.78-4.78h10.85a16,16,0,0,1,11.25,4.08,13.69,13.69,0,0,1,4.44,10.57A13.53,13.53,0,0,1,551.54,514.43Zm35.67,15.25a4.63,4.63,0,0,1-1.34,3.36,4.56,4.56,0,0,1-3.41,1.37c-2,0-3.51-1.29-4.44-3.24a10.15,10.15,0,0,1-8.16,3.51,13.39,13.39,0,0,1-10.44-4.79,18.26,18.26,0,0,1,0-23.37,13.39,13.39,0,0,1,10.44-4.79,10.15,10.15,0,0,1,8.16,3.51,4.64,4.64,0,0,1,4.44-2.92,4.57,4.57,0,0,1,3.41,1.37,4.64,4.64,0,0,1,1.34,3.36Z" transform="translate(-401.79 -479.97)"/></svg>